# xmcd
#
# Track frame offsets:
#	150
#	16995
#	39711
#	58452
#	74920
#	102993
#	117655
#	140519
#	154949
#	172995
#	191630
#	214699
#	232513
#	248434
#
# Disc length: 3543 seconds
#
# Revision: 3
# Processed by: cddbd v1.5.2PL0 Copyright (c) Steve Scherf et al.
# Submitted via: EasyCDDAExtractor 10.0.3.1
#
DISCID=ca0dd50e
DTITLE=Johnny Jones - Blues In The House
DYEAR=2001
DGENRE=Blues
TTITLE0=A Fool Never Learns
TTITLE1=Girlfriend Blues
TTITLE2=I'm Gonna Love You
TTITLE3=Stacked In The Back
TTITLE4=I Could Be Dangerous
TTITLE5=I'll Be The Judge Of That
TTITLE6=Love Recession
TTITLE7=Good Idea At The Time
TTITLE8=Your Stuff Is Rough
TTITLE9=Farm Boy
TTITLE10=Why Can't We Be Alone
TTITLE11=Really
TTITLE12=A Rock And A Hard Case
TTITLE13=The Blues Is In The House
EXTD=YEAR: 2001
EXTT0=
EXTT1=
EXTT2=
EXTT3=
EXTT4=
EXTT5=
EXTT6=
EXTT7=
EXTT8=
EXTT9=
EXTT10=
EXTT11=
EXTT12=
EXTT13=
PLAYORDER=
